<svg width="14" height="14" viewBox="0 0 14 14" fill="none" xmlns="http://www.w3.org/2000/svg">
<path fill-rule="evenodd" clip-rule="evenodd" d="M10.072 11.1326C9.0405 11.9373 7.7429 12.4167 6.33333 12.4167C2.9736 12.4167 0.25 9.69307 0.25 6.33333C0.25 2.9736 2.9736 0.25 6.33333 0.25C9.69307 0.25 12.4167 2.9736 12.4167 6.33333C12.4167 7.74289 11.9373 9.04047 11.1326 10.0719L13.5303 12.4696C13.8232 12.7625 13.8232 13.2374 13.5303 13.5303C13.2374 13.8232 12.7626 13.8232 12.4697 13.5303L10.072 11.1326ZM1.75 6.33333C1.75 3.80203 3.80203 1.75 6.33333 1.75C8.86464 1.75 10.9167 3.80203 10.9167 6.33333C10.9167 7.56596 10.4301 8.68494 9.63852 9.50867C9.61465 9.52734 9.59165 9.54767 9.56968 9.56965C9.5477 9.59162 9.52737 9.61462 9.50869 9.63849C8.68496 10.4301 7.56597 10.9167 6.33333 10.9167C3.80203 10.9167 1.75 8.86464 1.75 6.33333Z" fill="#A0AEC0"/>
</svg>
